<?xml version="1.0" standalone="no"?><!DOCTYPE svg PUBLIC "-//W3C//DTD SVG 1.1//EN" "http://www.w3.org/Graphics/SVG/1.1/DTD/svg11.dtd"><svg t="1589621286939" class="icon" viewBox="0 0 1024 1024" version="1.1" xmlns="http://www.w3.org/2000/svg" p-id="1275" xmlns:xlink="http://www.w3.org/1999/xlink" width="200" height="200"><defs><style type="text/css"></style></defs><path d="M987.428571 182.857143 731.428571 182.857143 731.428571 109.714286c0-40.393143-32.749714-73.142857-73.142857-73.142857L365.714286 36.571429c-40.393143 0-73.142857 32.749714-73.142857 73.142857l0 73.124571L36.571429 182.838857c-20.214857 0-36.571429 16.340114-36.571429 36.553143l0 658.285714c0 20.214857 16.356571 36.571429 36.571429 36.571429L987.428571 914.285714c20.214857 0 36.571429-16.356571 36.571429-36.571429L1024 219.428571C1024 199.213714 1007.643429 182.857143 987.428571 182.857143zM365.714286 109.714286l292.571429 0 0 73.142857L365.714286 182.857143 365.714286 109.714286zM804.571429 256l146.285714 0 0 118.250057c-114.784914 45.339429-262.714514 74.0352-402.285714 77.981257L548.571429 438.857143c0-20.196571-16.356571-36.571429-36.571429-36.571429s-36.571429 16.374857-36.571429 36.571429l0 13.143771c-140.035657-4.893257-287.535543-34.607543-402.285714-81.034971L73.142857 256 804.571429 256zM950.857143 841.142857l-146.285714 0L219.428571 841.142857l0-0.036571L73.142857 841.106286l0-146.285714 0-284.196571c116.821943 44.874971 263.5008 73.214171 402.285714 77.946514L475.428571 512c0 20.214857 16.356571 36.571429 36.571429 36.571429s36.571429-16.356571 36.571429-36.571429l0-23.197257c138.428343-3.821714 285.429029-31.197257 402.285714-75.035429L950.857143 694.857143 950.857143 841.142857z" p-id="1276" fill="#515151"></path></svg>