<?xml version="1.0" standalone="no"?><!DOCTYPE svg PUBLIC "-//W3C//DTD SVG 1.1//EN" "http://www.w3.org/Graphics/SVG/1.1/DTD/svg11.dtd"><svg t="1589611306377" class="icon" viewBox="0 0 1024 1024" version="1.1" xmlns="http://www.w3.org/2000/svg" p-id="1876" xmlns:xlink="http://www.w3.org/1999/xlink" width="200" height="200"><defs><style type="text/css"></style></defs><path d="M93.20048 407.024a8 8 0 0 1-7.504-10.736c40.688-111.664 125.6-204.976 232.944-256a8.016 8.016 0 0 1 6.88 14.464C221.93648 204 140.00048 294.048 100.73648 401.792a8.064 8.064 0 0 1-7.536 5.232zM168.12848 664c-57.344 0-104-46.656-104-104s46.656-104 104-104 104 46.656 104 104-46.656 104-104 104z m0-192c-48.528 0-88 39.472-88 88s39.472 88 88 88 88-39.472 88-88-39.472-88-88-88z" fill="#263238" p-id="1877"></path><path d="M234.68848 504.496l7.152-5.952A96 96 0 0 0 72.12848 560h9.056c56.096 0 110.4-19.648 153.504-55.504z" fill="#FFD740" p-id="1878"></path><path d="M81.20048 568h-9.072a8 8 0 0 1-8-8c0-57.344 46.656-104 104-104 30.896 0 60 13.632 79.856 37.408a8 8 0 0 1-1.024 11.28l-7.152 5.952A248.432 248.432 0 0 1 81.20048 568z m-0.704-16h0.704c54.096 0 106.8-19.056 148.384-53.664l0.72-0.608a87.776 87.776 0 0 0-62.16-25.744A88.16 88.16 0 0 0 80.49648 552zM119.95248 680.08a8 8 0 0 1-8-8l-0.016-29.12a8.016 8.016 0 0 1 12.016-6.928 88.896 88.896 0 0 0 88 0.176 8.032 8.032 0 0 1 12 6.928l0.016 28.768a8 8 0 0 1-16 0v-15.936a104.608 104.608 0 0 1-80-0.128l0.016 16.208a8.064 8.064 0 0 1-8.032 8.032z" fill="#263238" p-id="1879"></path><path d="M328.09648 816a8 8 0 0 1-8-8v-30.56a71.616 71.616 0 0 0-39.808-64.4l-61.616-30.8-44.016 65.696a8 8 0 0 1-13.28 0.016l-44.144-65.584-61.392 30.672a71.6 71.6 0 0 0-39.824 64.416V808a8 8 0 0 1-16 0v-30.544a87.52 87.52 0 0 1 48.672-78.72l67.68-33.808a8 8 0 0 1 10.208 2.688l41.408 61.52 41.312-61.664a8.032 8.032 0 0 1 10.224-2.704l67.92 33.952a87.552 87.552 0 0 1 48.656 78.704v30.56a8 8 0 0 1-8 8.016z" fill="#263238" p-id="1880"></path><path d="M168.01648 799.488a8 8 0 0 1-8-8v-48a8 8 0 0 1 16 0v48a8 8 0 0 1-8 8zM856.04848 664c-57.344 0-104-46.656-104-104s46.656-104 104-104 104 46.656 104 104-46.656 104-104 104z m0-192c-48.528 0-88 39.472-88 88s39.472 88 88 88 88-39.472 88-88-39.472-88-88-88z" fill="#263238" p-id="1881"></path><path d="M922.60848 504.496l7.152-5.952A96 96 0 0 0 760.04848 560h9.056c56.08 0 110.4-19.648 153.504-55.504z" fill="#FFD740" p-id="1882"></path><path d="M769.10448 568h-9.056a8 8 0 0 1-8-8c0-57.344 46.656-104 104-104 30.912 0 60.016 13.632 79.856 37.408a8 8 0 0 1-1.024 11.28l-7.152 5.952a248.448 248.448 0 0 1-158.624 57.36z m-0.704-16h0.704c54.096 0 106.8-19.056 148.384-53.664l0.72-0.608a87.776 87.776 0 0 0-62.16-25.728 88.144 88.144 0 0 0-87.648 80zM807.87248 680.08a8 8 0 0 1-8-8l-0.016-29.12a8 8 0 0 1 12.016-6.928 88.864 88.864 0 0 0 87.984 0.176 8.032 8.032 0 0 1 12 6.928l0.016 28.768a8 8 0 0 1-16 0L895.85648 656a104.608 104.608 0 0 1-80-0.128l0.016 16.208a8 8 0 0 1-8 8z" fill="#263238" p-id="1883"></path><path d="M1016.00048 816a8 8 0 0 1-8-8v-30.56a71.6 71.6 0 0 0-39.808-64.4l-61.616-30.8-44.016 65.696a8 8 0 0 1-13.28 0.016l-44.128-65.584-61.408 30.672a71.6 71.6 0 0 0-39.824 64.416V808a8 8 0 0 1-16 0v-30.544a87.52 87.52 0 0 1 48.672-78.72l67.696-33.808a8.016 8.016 0 0 1 10.224 2.688l41.392 61.52 41.312-61.664a8.032 8.032 0 0 1 10.224-2.704l67.92 33.952A87.536 87.536 0 0 1 1024.00048 777.44v30.56a8 8 0 0 1-8 8z" fill="#263238" p-id="1884"></path><path d="M855.93648 799.488a8 8 0 0 1-8-8v-48a8 8 0 0 1 16 0v48a8 8 0 0 1-8 8zM512.08048 248c-57.344 0-104-46.656-104-104s46.656-104 104-104 104 46.656 104 104-46.656 104-104 104z m0-192c-48.528 0-88 39.472-88 88s39.472 88 88 88 88-39.472 88-88-39.472-88-88-88z" fill="#263238" p-id="1885"></path><path d="M578.65648 88.496l7.152-5.952A96 96 0 0 0 416.08048 144h9.056c56.096 0 110.4-19.648 153.52-55.504z" fill="#FFD740" p-id="1886"></path><path d="M425.15248 152h-9.056a8 8 0 0 1-8-8c0-57.344 46.656-104 104-104 30.912 0 60.016 13.632 79.856 37.408a8 8 0 0 1-1.024 11.28l-7.152 5.952A248.448 248.448 0 0 1 425.15248 152z m-0.704-16h0.704c54.096 0 106.8-19.056 148.384-53.664l0.72-0.592A87.792 87.792 0 0 0 512.08048 56a88.112 88.112 0 0 0-87.632 80z m154.208-47.504h0.16-0.16zM463.92048 264.08a8 8 0 0 1-8-8l-0.016-29.12a8.016 8.016 0 0 1 12.016-6.928 88.88 88.88 0 0 0 87.984 0.176 8.032 8.032 0 0 1 12 6.928l0.016 28.768a8 8 0 0 1-16 0L551.90448 240a104.528 104.528 0 0 1-80-0.128l0.016 16.208a8 8 0 0 1-8 8z" fill="#263238" p-id="1887"></path><path d="M672.04848 400a8 8 0 0 1-8-8v-30.56a71.6 71.6 0 0 0-39.792-64.4l-61.616-30.816-44 65.696a8 8 0 0 1-13.28 0.016l-44.144-65.584-61.408 30.672a71.616 71.616 0 0 0-39.824 64.416v30.56a8 8 0 0 1-16 0v-30.544a87.52 87.52 0 0 1 48.672-78.72l67.696-33.808a7.984 7.984 0 0 1 10.208 2.688l41.408 61.52 41.296-61.664a8 8 0 0 1 10.224-2.704l67.92 33.968a87.52 87.52 0 0 1 48.64 78.704v30.56a8 8 0 0 1-8 8z" fill="#263238" p-id="1888"></path><path d="M511.98448 383.488a8 8 0 0 1-8-8v-48a8 8 0 0 1 16 0v48a8 8 0 0 1-8 8zM315.10448 235.2c-0.24 0-0.464 0-0.704-0.032a8 8 0 0 1-7.28-8.672l6.272-71.728-71.728-6.272a8 8 0 1 1 1.408-15.936l79.696 6.976a8 8 0 0 1 7.28 8.672l-6.976 79.696a8 8 0 0 1-7.968 7.296zM910.06448 392.832a8 8 0 0 1-7.616-5.536c-35.312-109.12-113.888-202.112-215.584-255.104a7.984 7.984 0 1 1 7.392-14.176c105.392 54.928 186.816 151.28 223.408 264.368a8 8 0 0 1-7.6 10.448z" fill="#263238" p-id="1889"></path><path d="M910.06448 392.832a7.952 7.952 0 0 1-1.728-0.192l-78.096-17.328a8 8 0 0 1 3.472-15.632l70.288 15.6 15.584-70.304a8 8 0 1 1 15.632 3.472l-17.312 78.096a8 8 0 0 1-7.84 6.288zM395.55248 984a8.032 8.032 0 0 1-6.528-3.344l-46.448-65.12a8.016 8.016 0 0 1 1.872-11.168l65.12-46.464a8.032 8.032 0 0 1 9.296 13.04l-58.624 41.808 41.808 58.608a8.016 8.016 0 0 1-6.496 12.64z" fill="#263238" p-id="1890"></path><path d="M642.51248 984a8.016 8.016 0 0 1-6.512-12.656l41.808-58.608-58.608-41.808a8.016 8.016 0 0 1 9.296-13.04l65.12 46.464a8.016 8.016 0 0 1 1.872 11.168l-46.448 65.12a8 8 0 0 1-6.528 3.36z" fill="#263238" p-id="1891"></path><path d="M519.02448 961.104c-53.472 0-106.928-11.712-156.736-35.168l-16.624-7.808a8.016 8.016 0 0 1 6.816-14.496l16.624 7.824a350.88 350.88 0 0 0 299.84 0l16.624-7.824a8.016 8.016 0 0 1 6.816 14.496l-16.624 7.824a367.904 367.904 0 0 1-156.736 35.152z" fill="#263238" p-id="1892"></path><path d="M622.24048 618.064l-4.384-2.528c1.68-7.584 2.64-15.44 2.64-23.536s-0.96-15.952-2.64-23.536l4.368-2.528 10.928-9.6a16 16 0 0 0 3.296-20.016l-14-24.256a15.984 15.984 0 0 0-18.976-7.152l-13.776 4.656-4.432 2.56a108.288 108.288 0 0 0-40.688-23.632v-4.976l-2.848-14.256a16 16 0 0 0-15.696-12.864h-28a16 16 0 0 0-15.696 12.864l-2.848 14.256v4.976a108.048 108.048 0 0 0-40.688 23.632l-4.432-2.56-13.776-4.656a15.968 15.968 0 0 0-18.976 7.152l-14 24.256a16 16 0 0 0 3.296 20.016l10.928 9.6 4.368 2.528c-1.68 7.584-2.64 15.44-2.64 23.536s0.96 15.952 2.64 23.536l-4.384 2.528-10.912 9.6a16 16 0 0 0-3.296 20.016l14 24.256c3.808 6.608 11.76 9.6 18.976 7.152l13.776-4.656 4.448-2.56a108.288 108.288 0 0 0 40.688 23.632v4.992l2.848 14.256a16 16 0 0 0 15.696 12.864h28a16 16 0 0 0 15.696-12.864l2.848-14.256v-4.992a108.048 108.048 0 0 0 40.688-23.632l4.448 2.56 13.776 4.656a15.968 15.968 0 0 0 18.976-7.152l14-24.256a16 16 0 0 0-3.296-20.016l-10.944-9.6z m-110.224 39.024a65.088 65.088 0 1 1 0-130.16 65.088 65.088 0 0 1 0 130.16z" fill="#FF5252" p-id="1893"></path><path d="M526.01648 735.6h-28a24.048 24.048 0 0 1-23.536-19.312l-2.864-15.024a115.312 115.312 0 0 1-33.888-19.696l-14.608 5.088a24.096 24.096 0 0 1-28.48-10.736l-14-24.256a24.048 24.048 0 0 1 4.96-30.032l11.648-10.032c-1.136-6.576-1.712-13.152-1.712-19.616s0.576-13.024 1.712-19.616l-11.648-10.016a24.016 24.016 0 0 1-4.944-30.016l14-24.256a24.048 24.048 0 0 1 28.464-10.736l14.592 5.104a114.944 114.944 0 0 1 33.904-19.712l2.864-15.04a24.048 24.048 0 0 1 23.536-19.296h28c11.408 0 21.312 8.112 23.536 19.312l2.864 15.024a115.312 115.312 0 0 1 33.888 19.696l14.592-5.104a24.112 24.112 0 0 1 28.48 10.736l14 24.256a24.048 24.048 0 0 1-4.96 30.032l-11.648 10.032c1.136 6.576 1.712 13.152 1.712 19.6 0 6.416-0.576 12.96-1.68 19.488 0.24 0.176 0.48 0.352 0.704 0.56l10.928 9.6c8.56 7.52 10.64 20.144 4.944 30.016l-14 24.256a24.112 24.112 0 0 1-28.48 10.736l-14.592-5.104a115.248 115.248 0 0 1-33.904 19.696l-2.864 15.04a24.016 24.016 0 0 1-23.52 19.328z m-87.248-71.744c1.952 0 3.904 0.72 5.408 2.096a99.52 99.52 0 0 0 37.68 21.904 8 8 0 0 1 5.6 7.632v4.992l2.688 12.672a8 8 0 0 0 7.84 6.432h28a8 8 0 0 0 7.84-6.416l2.848-14.272-0.16-3.408a8 8 0 0 1 5.6-7.632 99.392 99.392 0 0 0 37.68-21.904 8 8 0 0 1 9.408-1.024l4.432 2.576 12.336 4a8 8 0 0 0 9.488-3.584l14-24.256a8 8 0 0 0-1.648-10l-10.336-9.072-3.696-2.144a8.016 8.016 0 0 1-3.808-8.656c1.632-7.328 2.448-14.672 2.448-21.808s-0.816-14.48-2.448-21.808a8 8 0 0 1 3.808-8.656l4.368-2.528 9.648-8.672a8 8 0 0 0 1.648-10l-14-24.256a8.048 8.048 0 0 0-9.504-3.584l-13.76 4.672-3.008 1.92a8.016 8.016 0 0 1-9.408-1.024 99.52 99.52 0 0 0-37.68-21.904 8 8 0 0 1-5.6-7.632v-4.992l-2.688-12.688a8 8 0 0 0-7.84-6.432h-28a8 8 0 0 0-7.84 6.432l-2.848 14.272 0.16 3.408a8 8 0 0 1-5.6 7.632 99.392 99.392 0 0 0-37.68 21.904 8 8 0 0 1-9.408 1.024l-4.432-2.56-12.336-4.016a8.016 8.016 0 0 0-9.488 3.584l-14 24.256a8 8 0 0 0 1.648 10l10.928 9.616 3.088 1.6a8 8 0 0 1 3.808 8.656c-1.632 7.328-2.448 14.672-2.448 21.808s0.816 14.48 2.448 21.808a8 8 0 0 1-3.808 8.656l-4.368 2.528-9.648 8.672a8 8 0 0 0-1.648 10l14 24.256a8.032 8.032 0 0 0 9.488 3.584l13.776-4.656 2.992-1.92a8.032 8.032 0 0 1 4.032-1.088z m73.248 1.232c-40.304 0-73.088-32.784-73.088-73.088s32.784-73.088 73.088-73.088c40.304 0 73.088 32.784 73.088 73.088s-32.784 73.088-73.088 73.088z m0-130.176c-31.488 0-57.088 25.616-57.088 57.088s25.616 57.088 57.088 57.088 57.088-25.616 57.088-57.088-25.616-57.088-57.088-57.088z" fill="#263238" p-id="1894"></path></svg>